<?xml version="1.0" standalone="no"?>
<!DOCTYPE svg PUBLIC "-//W3C//DTD SVG 20010904//EN"
 "http://www.w3.org/TR/2001/REC-SVG-20010904/DTD/svg10.dtd">
<svg version="1.0" xmlns="http://www.w3.org/2000/svg"
 width="600.000000pt" height="600.000000pt" viewBox="0 0 600.000000 600.000000"
 preserveAspectRatio="xMidYMid meet">

<g transform="translate(0.000000,600.000000) scale(0.100000,-0.100000)"
fill="#000000" stroke="none">
<path d="M2751 5790 c-673 -65 -1288 -359 -1751 -836 -147 -151 -222 -244
-338 -418 -154 -231 -284 -515 -357 -783 -75 -273 -100 -458 -100 -753 0 -295
25 -480 100 -753 73 -268 203 -552 357 -783 115 -173 191 -266 333 -413 224
-231 487 -423 769 -561 299 -146 552 -221 911 -272 120 -17 533 -17 650 0 250
37 466 89 651 157 266 98 599 293 819 478 116 98 292 277 385 392 168 206 353
532 445 779 68 185 124 414 157 651 16 118 16 532 0 650 -51 359 -126 612
-272 911 -138 282 -330 545 -561 769 -147 142 -240 218 -413 333 -343 229
-723 371 -1171 438 -122 18 -485 26 -614 14z m469 -300 c480 -42 935 -222
1330 -528 109 -85 327 -303 412 -412 153 -198 274 -410 362 -630 314 -794 203
-1684 -298 -2384 l-48 -68 -49 87 c-184 329 -453 615 -764 810 -105 66 -273
148 -398 195 l-88 33 68 45 c100 66 260 230 333 342 345 523 277 1195 -164
1636 -203 203 -447 327 -728 368 -408 61 -809 -73 -1104 -368 -511 -511 -511
-1322 0 -1832 55 -56 131 -121 169 -146 l68 -45 -88 -33 c-125 -47 -293 -129
-398 -195 -311 -195 -580 -481 -764 -810 l-49 -87 -48 68 c-449 627 -588 1417
-379 2145 121 421 330 775 640 1084 194 195 378 331 609 450 429 223 899 316
1376 275z m18 -819 c309 -80 550 -285 679 -578 60 -135 77 -220 77 -393 0
-129 -4 -169 -22 -238 -99 -368 -366 -635 -734 -734 -69 -18 -109 -22 -238
-22 -129 0 -169 4 -238 22 -368 99 -635 366 -734 734 -32 120 -32 356 0 476
71 263 236 486 457 618 104 63 265 120 390 138 75 11 282 -2 363 -23z m92
-2300 c614 -108 1158 -532 1404 -1093 l25 -57 -87 -78 c-225 -202 -475 -357
-752 -467 -884 -349 -1880 -170 -2592 467 l-87 78 25 57 c80 182 209 374 354
525 316 332 715 531 1170 587 121 14 408 5 540 -19z"/>
</g>
</svg>
